<svg xmlns="http://www.w3.org/2000/svg" viewBox="0 0 16 16"><title>favicon</title><path d="M15.6 6.9L12.7 2c-.4-.6-1.2-1.1-1.9-1.1H5.2c-.7 0-1.6.5-1.9 1.1L.4 6.9c-.3.6-.3 1.6 0 2.2L3.3 14c.4.6 1.2 1.1 1.9 1.1h5.6c.7 0 1.6-.5 1.9-1.1l2.8-4.9c.4-.6.4-1.6.1-2.2zm-8.2 5.7c-1 0-2-.3-2.5-.5l.4-1.6c.7.3 1.4.5 2.2.5.9 0 1.4-.4 1.4-.9s-.4-.9-1.5-1.2C6 8.3 5.1 7.5 5.1 6.2c0-1.5 1.2-2.6 3.3-2.6 1 0 1.7.2 2.2.4l-.4 1.6c-.6-.3-1.2-.4-1.9-.4-.8 0-1.2.4-1.2.8 0 .6.5.8 1.6 1.2 1.5.6 2.3 1.4 2.3 2.7 0 1.4-1.2 2.7-3.6 2.7z"/></svg>