<svg id="Floor" xmlns="http://www.w3.org/2000/svg" viewBox="0 0 1000 583.04">
  <title>developer</title>
  <line x1="1000" y1="581.54" y2="581.54" style="fill: none;stroke: #000;stroke-miterlimit: 10;stroke-width: 3px"/>
  <path d="M843.46,608H778a17,17,0,0,1-16.9-15.13l-12.4-112.15a2,2,0,0,1,2-2.22h120a2,2,0,0,1,2,2.22l-12.4,112.15A17,17,0,0,1,843.46,608Z" transform="translate(0 -28.46)" style="fill: #fff"/>
  <path d="M761.08,589.67l0.07,0.72c1,10,8.23,17.61,16.9,17.61h65.42c8.67,0,15.94-7.59,16.9-17.61l0.07-.72H761.08Z" transform="translate(0 -28.46)" style="fill: #d3dcee"/>
  <path d="M843.46,608H778a17,17,0,0,1-16.9-15.13l-12.4-112.15a2,2,0,0,1,2-2.22h120a2,2,0,0,1,2,2.22l-12.4,112.15A17,17,0,0,1,843.46,608Z" transform="translate(0 -28.46)" style="fill: none;stroke: #000;stroke-miterlimit: 10;stroke-width: 3px"/>
  <path d="M810.75,478.5S824.67,343,894.33,276" transform="translate(0 -28.46)" style="fill: none;stroke: #000;stroke-linecap: round;stroke-miterlimit: 10;stroke-width: 3px"/>
  <g>
    <path d="M766.78,262.5s-8.29,45.47,3.34,73,42.39,26.26,42.39,26.26,22.88-21.59,11.24-49.15S766.78,262.5,766.78,262.5Z" transform="translate(0 -28.46)" style="fill: #9bdad8"/>
    <path d="M826.44,321.62s-14-1.75-15.64,27.47c-17.73-22.63-37-6.58-37-6.58" transform="translate(0 -28.46)" style="fill: none;stroke: #86c7d6;stroke-miterlimit: 10;stroke-width: 3px"/>
    <path d="M820,305.57s-19-3.34-16.7,23.31c-23.2-17.13-35.31.73-35.31,0.73" transform="translate(0 -28.46)" style="fill: none;stroke: #86c7d6;stroke-miterlimit: 10;stroke-width: 3px"/>
    <path d="M804.13,287.67s-16.79-2.6-17.44,18.46c-13.37-11.15-22.59-1.42-22.59-1.42" transform="translate(0 -28.46)" style="fill: none;stroke: #86c7d6;stroke-miterlimit: 10;stroke-width: 3px"/>
    <path d="M787.81,275.08s-8.09.46-8.58,13.62c-8.44-9.84-15-3.52-15-3.52" transform="translate(0 -28.46)" style="fill: none;stroke: #86c7d6;stroke-miterlimit: 10;stroke-width: 3px"/>
    <path d="M766.78,262.5s-8.29,45.47,3.34,73,42.39,26.26,42.39,26.26,22.88-21.59,11.24-49.15S766.78,262.5,766.78,262.5Z" transform="translate(0 -28.46)" style="fill: none;stroke: #000;stroke-miterlimit: 10;stroke-width: 3px"/>
    <path d="M807.68,478.17s29.93-126.33-18.09-167" transform="translate(0 -28.46)" style="fill: none;stroke: #000;stroke-linecap: round;stroke-miterlimit: 10;stroke-width: 3px"/>
  </g>
  <path d="M985,379.5s-47.58-26.35-85.72-18.45S855,408.56,855,408.56s27.52,29.89,65.66,22S985,379.5,985,379.5Z" transform="translate(0 -28.46)" style="fill: #9bdad8"/>
  <path d="M920.69,430.55s-4.74-26.86-28.54-34.93c18-17.53,9.87-35.07,9.87-35.07" transform="translate(0 -28.46)" style="fill: none;stroke: #86c7d6;stroke-miterlimit: 10;stroke-width: 3px"/>
  <path d="M941.51,422.49s-0.76-26.77-27.84-32c18-17.53,9.85-30.46,9.85-30.46" transform="translate(0 -28.46)" style="fill: none;stroke: #86c7d6;stroke-miterlimit: 10;stroke-width: 3px"/>
  <path d="M959.34,409.57s-3.34-21.07-22.63-23.9c11.32-12.42,3.3-23,3.3-23" transform="translate(0 -28.46)" style="fill: none;stroke: #86c7d6;stroke-miterlimit: 10;stroke-width: 3px"/>
  <path d="M972.89,395.73s1.11-13.38-15.29-13.65c11.14-5.82,3.56-13.1,3.56-13.1" transform="translate(0 -28.46)" style="fill: none;stroke: #86c7d6;stroke-miterlimit: 10;stroke-width: 3px"/>
  <path d="M902,431.61s-5.45-22.34-29.25-30.41c18-17.53,13.26-35.65,13.26-35.65" transform="translate(0 -28.46)" style="fill: none;stroke: #86c7d6;stroke-miterlimit: 10;stroke-width: 3px"/>
  <path d="M985,379.5s-47.58-26.35-85.72-18.45S855,408.56,855,408.56s27.52,29.89,65.66,22S985,379.5,985,379.5Z" transform="translate(0 -28.46)" style="fill: none;stroke: #000;stroke-miterlimit: 10;stroke-width: 3px"/>
  <path d="M904.67,393s-83.17,5.67-93.92,85.5" transform="translate(0 -28.46)" style="fill: none;stroke: #000;stroke-linecap: round;stroke-miterlimit: 10;stroke-width: 3px"/>
  <path d="M942.21,311.06s-20.5,21.65-39.21,23.27-25.33-12.83-25.33-12.83S881.29,301.62,900,300,942.21,311.06,942.21,311.06Z" transform="translate(0 -28.46)" style="fill: #9bdad8;stroke: #000;stroke-miterlimit: 10;stroke-width: 3px"/>
  <path d="M851.67,336.33s15-16.67,45.33-20.33" transform="translate(0 -28.46)" style="fill: none;stroke: #000;stroke-linecap: round;stroke-miterlimit: 10;stroke-width: 3px"/>
  <path d="M844.53,232s23.75,12.48,29.72,28.3-4.94,25.08-4.94,25.08-18.1,1.7-24.07-14.11S844.53,232,844.53,232Z" transform="translate(0 -28.46)" style="fill: #9bdad8;stroke: #000;stroke-miterlimit: 10;stroke-width: 3px"/>
  <path d="M869.64,305.54s4.36-17.21-6-35.88" transform="translate(0 -28.46)" style="fill: none;stroke: #000;stroke-linecap: round;stroke-miterlimit: 10;stroke-width: 3px"/>
  <path d="M391.67,295c-4,0-3.5-6.5-3.5-6.5V259.67h-46V288.5s-0.5,6.5,3.5,6.5h46Z" transform="translate(0 -28.46)" style="fill: #fff"/>
  <path d="M353.15,259.67h-11V288.5s-0.5,6.5,3.5,6.5h7.48V259.67Z" transform="translate(0 -28.46)" style="fill: #ccc"/>
  <path d="M391.67,295c-4,0-3.5-6.5-3.5-6.5V259.67h-46V288.5s-0.5,6.5,3.5,6.5h46Z" transform="translate(0 -28.46)" style="fill: none;stroke: #000;stroke-miterlimit: 10;stroke-width: 3px"/>
  <rect x="273.89" y="50.04" width="239.91" height="181.17" rx="11" ry="11"/>
  <path d="M273.89,230.16v18.51a11,11,0,0,0,11,11H502.8a11,11,0,0,0,11-11V230.16H273.89Z" transform="translate(0 -28.46)" style="fill: #fff"/>
  <path d="M282.89,230.16h-9v18.51a11,11,0,0,0,11,11H290l-7.11-6.8V230.16Z" transform="translate(0 -28.46)" style="fill: #ccc"/>
  <rect x="273.89" y="50.04" width="239.91" height="181.17" rx="11" ry="11" style="fill: none;stroke: #000;stroke-miterlimit: 10;stroke-width: 3px"/>
  <path d="M307,259.67H293.89a11,11,0,0,1-11-11V89.5c0-6,4.38-11,9.72-11h9.72" transform="translate(0 -28.46)" style="fill: none;stroke: #000;stroke-miterlimit: 10;stroke-width: 3px"/>
  <line x1="513.8" y1="201.71" x2="273.89" y2="201.71" style="fill: none;stroke: #000;stroke-miterlimit: 10;stroke-width: 3px"/>
  <circle cx="405.84" cy="214.88" r="5.08"/>
  <g>
    <g>
      <path d="M514.8,300.33c0,2.93-2.7,5.33-6,5.33H335.5c-3.3,0-6-2.4-6-5.33s2.7-5.33,6-5.33H508.8C512.1,295,514.8,297.4,514.8,300.33Z" transform="translate(0 -28.46)" style="fill: #fff"/>
      <path d="M514.8,300.33c0,2.93-2.7,5.33-6,5.33H335.5c-3.3,0-6-2.4-6-5.33s2.7-5.33,6-5.33H508.8C512.1,295,514.8,297.4,514.8,300.33Z" transform="translate(0 -28.46)" style="fill: none;stroke: #000;stroke-miterlimit: 10;stroke-width: 3px"/>
    </g>
    <line x1="393.84" y1="266.54" x2="393.84" y2="277.21" style="fill: none;stroke: #000;stroke-miterlimit: 10;stroke-width: 3px"/>
  </g>
  <path d="M292.9,56H497.74a10,10,0,0,1,10,10V196.51a0,0,0,0,1,0,0H282.89a0,0,0,0,1,0,0V66A10,10,0,0,1,292.9,56Z" style="fill: #384356"/>
  <g>
    <g>
      <rect x="293.41" y="63.48" width="204.51" height="125.13" rx="3" ry="3" style="fill: #fff"/>
      <rect x="293.41" y="63.48" width="204.51" height="125.13" rx="3" ry="3" style="fill: none;stroke: #000;stroke-miterlimit: 10;stroke-width: 3px"/>
    </g>
    <rect x="293.41" y="63.48" width="202.92" height="18.4"/>
  </g>
  <line x1="307" y1="175.54" x2="371.81" y2="175.54" style="fill: none;stroke: #ade9e6;stroke-linecap: round;stroke-miterlimit: 10;stroke-width: 3px"/>
  <line x1="307" y1="125.54" x2="376.82" y2="125.54" style="fill: none;stroke: #000;stroke-linecap: round;stroke-miterlimit: 10;stroke-width: 3px"/>
  <line x1="307" y1="115.54" x2="364.25" y2="115.54" style="fill: none;stroke: #ade9e6;stroke-linecap: round;stroke-miterlimit: 10;stroke-width: 3px"/>
  <line x1="421.4" y1="175.54" x2="483.84" y2="175.54" style="fill: none;stroke: #000;stroke-linecap: round;stroke-miterlimit: 10;stroke-width: 3px"/>
  <line x1="434.94" y1="125.54" x2="483.84" y2="125.54" style="fill: none;stroke: #ade9e6;stroke-linecap: round;stroke-miterlimit: 10;stroke-width: 3px"/>
  <line x1="426.1" y1="115.54" x2="483.84" y2="115.54" style="fill: none;stroke: #000;stroke-linecap: round;stroke-miterlimit: 10;stroke-width: 3px"/>
  <path d="M353.17,259.67V288.5s-0.5,6.5,3.5,6.5" transform="translate(0 -28.46)" style="fill: none;stroke: #000;stroke-miterlimit: 10;stroke-width: 3px"/>
  <g>
    <polygon points="145.5 85.05 104.25 85.05 125.5 62.55 145.5 85.05" style="fill: none;stroke: #9cdcdb;stroke-miterlimit: 10;stroke-width: 3px"/>
    <rect x="56" y="81.88" width="138" height="114.63" style="fill: #b0e9e9;stroke: #9cdcdb;stroke-miterlimit: 10;stroke-width: 3px"/>
    <line x1="67.25" y1="81.88" x2="67.25" y2="196.51" style="fill: none;stroke: #9cdcdb;stroke-miterlimit: 10;stroke-width: 3px"/>
    <rect x="78.75" y="96.73" width="102.5" height="84.94" style="fill: #fff;stroke: #9cdcdb;stroke-miterlimit: 10;stroke-width: 3px"/>
    <path d="M155.75,194.75c3.3,0,4.47-2.23,2.6-4.94l-12.7-18.49c-1.87-2.72-4.74-2.6-6.37.27l-3.18,5.58c-1.63,2.87-4.11,2.76-5.49-.23l-9.71-21c-1.39-3-3.69-3-5.13,0L99.61,189.35c-1.44,3,.09,5.4,3.39,5.4h52.75Z" transform="translate(0 -28.46)" style="fill: #ececec"/>
    <circle cx="148.25" cy="125.04" r="5.5" style="fill: #ececec"/>
  </g>
  <g>
    <polygon points="686.5 85.05 645.25 85.05 666.5 62.55 686.5 85.05" style="fill: none;stroke: #9cdcdb;stroke-miterlimit: 10;stroke-width: 3px"/>
    <rect x="597" y="81.88" width="138" height="114.63" style="fill: #b0e9e9;stroke: #9cdcdb;stroke-miterlimit: 10;stroke-width: 3px"/>
    <line x1="608.25" y1="81.88" x2="608.25" y2="196.51" style="fill: none;stroke: #9cdcdb;stroke-miterlimit: 10;stroke-width: 3px"/>
    <rect x="619.75" y="96.73" width="102.5" height="84.94" style="fill: #fff;stroke: #9cdcdb;stroke-miterlimit: 10;stroke-width: 3px"/>
    <path d="M696.75,194.75c3.3,0,4.47-2.23,2.6-4.94l-12.7-18.49c-1.87-2.72-4.74-2.6-6.37.27l-3.18,5.58c-1.63,2.87-4.11,2.76-5.49-.23l-9.71-21c-1.39-3-3.69-3-5.13,0l-16.16,33.44c-1.44,3,.09,5.4,3.39,5.4h52.75Z" transform="translate(0 -28.46)" style="fill: #ececec"/>
    <circle cx="689.25" cy="125.04" r="5.5" style="fill: #ececec"/>
  </g>
  <polygon points="559.5 581.54 546 581.54 525 292.55 584.5 292.55 559.5 581.54" style="fill: #e6e6e6;stroke: #000;stroke-miterlimit: 10;stroke-width: 3px"/>
  <polygon points="187 578.38 178 578.38 178 292.55 217 292.55 187 578.38" style="fill: #f2f2f2;stroke: #000;stroke-miterlimit: 10;stroke-width: 3px"/>
  <polygon points="297.08 580.38 284.58 580.38 261.33 292.55 320.33 292.55 297.08 580.38" style="fill: #fff;stroke: #000;stroke-miterlimit: 10;stroke-width: 3px"/>
  <g>
    <rect x="153" y="274.21" width="516" height="18.33" rx="2" ry="2" style="fill: #fff"/>
    <rect x="153" y="274.21" width="516" height="18.33" rx="2" ry="2" style="fill: none;stroke: #000;stroke-miterlimit: 10;stroke-width: 3px"/>
  </g>
  <line x1="279" y1="274.21" x2="279" y2="292.54" style="fill: none;stroke: #000;stroke-miterlimit: 10;stroke-width: 3px"/>
  <line x1="290.83" y1="292.54" x2="290.83" y2="578.8" style="fill: none;stroke: #000;stroke-miterlimit: 10;stroke-width: 3px"/>
  <line x1="554.75" y1="292.54" x2="553.75" y2="581.54" style="fill: none;stroke: #000;stroke-miterlimit: 10;stroke-width: 3px"/>
  <polygon points="696.5 578.8 680.5 578.8 657.5 293.05 694.5 293.05 696.5 578.8" style="fill: #fff;stroke: #000;stroke-miterlimit: 10;stroke-width: 3px"/>
  <rect x="209.75" y="226.79" width="39.75" height="46.75" rx="3" ry="3" style="fill: #fff"/>
  <rect x="235.75" y="226.79" width="13.75" height="46.75" style="fill: #d4ddef"/>
  <path d="M250.29,267.79a10.35,10.35,0,1,1-1.17,17.13" transform="translate(0 -28.46)" style="fill: none;stroke: #000;stroke-miterlimit: 10;stroke-width: 3px"/>
  <path d="M218,263.25a15.29,15.29,0,0,0-8.25,2.42v25.92A15.37,15.37,0,1,0,218,263.25Z" transform="translate(0 -28.46)" style="fill: #ade9e6"/>
  <rect x="209.75" y="226.79" width="39.75" height="46.75" rx="3" ry="3" style="fill: none;stroke: #000;stroke-miterlimit: 10;stroke-width: 3px"/>
  <path d="M228,249.75s-2-12.72,8.75-29.25-5.32-32-5.32-32" transform="translate(0 -28.46)" style="fill: none;stroke: #9cd9d8;stroke-linecap: round;stroke-miterlimit: 10;stroke-width: 3px"/>
  <path d="M225.75,219.13s7.25-8.62,0-18.37" transform="translate(0 -28.46)" style="fill: none;stroke: #9cd9d8;stroke-linecap: round;stroke-miterlimit: 10;stroke-width: 3px"/>
  <path d="M378.81,293s3.9,2.54,6.21,0c1.65-1.82,1.94-2.24,1.94-2.24l-3.06-1.33-1.48-.1-1.25.63-1.5,1.61Z" transform="translate(0 -28.46)" style="fill: #4c5c74;stroke: #000;stroke-linecap: round;stroke-miterlimit: 10;stroke-width: 2px"/>
  <path d="M371.81,293s3.56,2.19,6.21,0a35.43,35.43,0,0,0,4.09-3.9l-4.1-1.78h-1.27Z" transform="translate(0 -28.46)" style="fill: #4c5c74;stroke: #000;stroke-linecap: round;stroke-miterlimit: 10;stroke-width: 2px"/>
  <path d="M364.25,292.75s4.12,2.48,6.77.28a64.94,64.94,0,0,0,5.8-5.78l-3.59-.37-2.69.4L369,288l-1.29.59-0.94.54-1.31.93Z" transform="translate(0 -28.46)" style="fill: #4c5c74;stroke: #000;stroke-linecap: round;stroke-miterlimit: 10;stroke-width: 2px"/>
  <path d="M420.79,270.59s-20.89-.91-26.79,0-19.43,5.32-25.83,8.37A30,30,0,0,0,357,288.38c-0.83,1.13-1.83,3.58-.46,5.25,1.24,1.5,3.45,1.2,5.25.21s4.88-5.33,8.21-6.5,8.67,0.33,8.67.33,11.83,5.11,14.08,5.21,4.27,0.52,7.64-.83,4.31-1.95,7.54-2,12,0.57,12,.57" transform="translate(0 -28.46)" style="fill: #4c5c74;stroke: #000;stroke-miterlimit: 10;stroke-width: 2px"/>
  <path d="M635.06,134.08a44.36,44.36,0,0,0,10.11-28.26V81A51.06,51.06,0,0,0,594.1,30h-1.36a36.35,36.35,0,0,0-36.35,36.35v44.75a39.3,39.3,0,0,0,39.3,39.3l3.5,10.21,23.14,4.1,15-4.67,3.5-3.83Z" transform="translate(0 -28.46)" style="fill: #4c5c74"/>
  <path d="M603.67,67.83L556.4,65.88c0,0.14,0,.28,0,0.43V82.75c9.15,5.12,10.82,9.58,9.77,20.42a28.24,28.24,0,0,1-8.61,17.4,39.37,39.37,0,0,0,23.29,26.88c-9.48-10.39-9.45-46.57-7.51-50.61,3.83-8,9.73-.86,10.24.51,0.34,0.91,1.37,8.15-3.74,16,0.37,3.41,3,7.21,8.67,10s16.11,4,16.11,4L613.5,82.5Z" transform="translate(0 -28.46)" style="fill: #334861"/>
  <path d="M594.1,30h-1.36a36.35,36.35,0,0,0-36.35,36.35V80.47c6.23-2,20.07-4.57,28.77,7,11.5,15.33-4,43.33,27.83,42.17,13.92-.51,21.56-0.64,27.09-3.18,2.58-5.64,5.07-14.06,5.07-20.66V81A51.06,51.06,0,0,0,594.1,30Z" transform="translate(0 -28.46)" style="fill: #2f3848"/>
  <path d="M594.19,150.33a39.3,39.3,0,0,1-37.8-39.27V66.31A36.35,36.35,0,0,1,592.75,30h1.36A51.06,51.06,0,0,1,645.17,81v24.8a44.35,44.35,0,0,1-9.59,27.61" transform="translate(0 -28.46)" style="fill: none;stroke: #000;stroke-miterlimit: 10;stroke-width: 3px"/>
  <path d="M595.69,150.36l-1.5,0" transform="translate(0 -28.46)" style="fill: none;stroke: #000;stroke-miterlimit: 10;stroke-width: 3px"/>
  <path d="M469,359.58H450.44A40.44,40.44,0,0,0,410,400V522h59V422.49H599.5V360.55Z" transform="translate(0 -28.46)" style="fill: #4c5c74"/>
  <path d="M450.44,359.58A40.42,40.42,0,0,0,415.89,379H599.5V360.55l-130.5-1H450.44Z" transform="translate(0 -28.46)" style="fill: #38475d"/>
  <path d="M469,422.49V522H452.33V412.11s-0.12,5.71,8.27,9S469,422.49,469,422.49Z" transform="translate(0 -28.46)" style="fill: #38475d"/>
  <path d="M469,359.58H450.44A40.44,40.44,0,0,0,410,400V522h59V422.49H599.5V360.55Z" transform="translate(0 -28.46)" style="fill: none;stroke: #000;stroke-miterlimit: 10;stroke-width: 3px"/>
  <path d="M566,179.83c49.33-40.33,107.33-26.83,128-7.16s15,90.67,15,90.67V395.73H591.68a27.35,27.35,0,0,1-27.35-27.35,76.91,76.91,0,0,1,.57-12.43c1.59-13.4,4.78-34.43,4.54-46.61-0.38-18.89-4.1-46.34-4.1-46.34S609.5,205.65,566,179.83Z" transform="translate(0 -28.46)" style="fill: #fff"/>
  <path d="M564.81,356.79c53.7-61.29,39.73-152.31,39.73-152.31l-19.59,3.74c2.57,26-19.61,54.78-19.61,54.78s3.72,27.45,4.1,46.34c0.25,12.18-2.95,33.22-4.54,46.61C564.87,356.24,564.84,356.51,564.81,356.79Z" transform="translate(0 -28.46)" style="fill: #ccd5e5"/>
  <path d="M566,179.83c49.33-40.33,107.33-26.83,128-7.16s15,90.67,15,90.67V395.73H591.68a27.35,27.35,0,0,1-27.35-27.35,76.91,76.91,0,0,1,.57-12.43c1.59-13.4,4.78-34.43,4.54-46.61-0.38-18.89-4.1-46.34-4.1-46.34S609.5,205.65,566,179.83Z" transform="translate(0 -28.46)" style="fill: none;stroke: #000;stroke-linecap: round;stroke-miterlimit: 10;stroke-width: 3px"/>
  <path d="M447.78,258.65a21.65,21.65,0,0,0-21.68,21.62h0A21.65,21.65,0,0,0,447.72,302l74.93,0.14h2.6c7.56-.23,13.79-4.63,18.72-11.11l55.32-72.62A26,26,0,0,0,594.38,182l-0.09-.07a26,26,0,0,0-36.39,4.92l-54.72,71.84H447.78Z" transform="translate(0 -28.46)" style="fill: #fff"/>
  <path d="M598.09,185.42h0S533.84,276,528.16,283.66c-4.94,6.66-20.91,5.36-20.91,5.36H427.94A21.65,21.65,0,0,0,447.72,302l74.93,0.14h2.6c7.56-.23,13.79-4.63,18.72-11.11l55.32-72.62A26,26,0,0,0,598.09,185.42Z" transform="translate(0 -28.46)" style="fill: #ccd5e5"/>
  <rect x="516.5" y="400.04" width="58.5" height="99.19" style="fill: #4c5c74"/>
  <rect x="556.33" y="400.04" width="18.67" height="98.17" style="fill: #38475d"/>
  <rect x="516.5" y="400.04" width="58.5" height="99.19" style="fill: none;stroke: #000;stroke-miterlimit: 10;stroke-width: 3px"/>
  <line x1="469" y1="394.04" x2="503.79" y2="394.04" style="fill: #38475d"/>
  <path d="M453.51,412.11c0,6.84,8.54,10.38,15.38,10.38" transform="translate(0 -28.46)" style="fill: none;stroke: #000;stroke-linecap: round;stroke-miterlimit: 10;stroke-width: 3px"/>
  <g>
    <line x1="572.67" y1="360.04" x2="569.67" y2="360.04" style="fill: none;stroke: #000;stroke-linecap: round;stroke-miterlimit: 10;stroke-width: 3px"/>
    <path d="M563.75,388.5H456.25A19.25,19.25,0,0,0,437,407.75V516" transform="translate(0 -28.46)" style="fill: none;stroke: #000;stroke-linecap: round;stroke-miterlimit: 10;stroke-width: 3px;stroke-dasharray: 5.92807149887085,5.92807149887085"/>
    <line x1="437" y1="490.55" x2="437" y2="493.55" style="fill: none;stroke: #000;stroke-linecap: round;stroke-miterlimit: 10;stroke-width: 3px"/>
  </g>
  <g>
    <rect x="402.67" y="492.88" width="72.67" height="28.67" rx="4" ry="4" style="fill: #fff"/>
    <rect x="402.67" y="492.88" width="72.67" height="28.67" rx="4" ry="4" style="fill: none;stroke: #000;stroke-linecap: round;stroke-miterlimit: 10;stroke-width: 3px"/>
  </g>
  <g>
    <rect x="508.67" y="492.88" width="72.67" height="28.67" rx="4" ry="4" style="fill: #e6e6e6"/>
    <rect x="508.67" y="492.88" width="72.67" height="28.67" rx="4" ry="4" style="fill: none;stroke: #000;stroke-linecap: round;stroke-miterlimit: 10;stroke-width: 3px"/>
  </g>
  <path d="M437.22,299.27a18.46,18.46,0,0,1-2.14-36.86" transform="translate(0 -28.46)" style="fill: #fff;stroke: #000;stroke-linecap: round;stroke-miterlimit: 10;stroke-width: 3px"/>
  <path d="M447.78,258.65a21.65,21.65,0,0,0-21.68,21.62h0A21.65,21.65,0,0,0,447.72,302l74.93,0.14h2.6c7.56-.23,13.79-4.63,18.72-11.11l55.32-72.62A26,26,0,0,0,594.38,182l-0.09-.07a26,26,0,0,0-36.39,4.92l-54.72,71.84H447.78Z" transform="translate(0 -28.46)" style="fill: none;stroke: #000;stroke-linecap: round;stroke-miterlimit: 10;stroke-width: 3px"/>
  <rect x="423" y="521.54" width="30.48" height="42.67" style="fill: #4c5c74"/>
  <rect x="423" y="521.54" width="30.18" height="9.33" style="fill: #38475d"/>
  <rect x="423" y="521.54" width="30.48" height="42.67" style="fill: none;stroke: #000;stroke-miterlimit: 10;stroke-width: 3px"/>
  <path d="M456.41,573.84c-7.25-4.12-4.79,3.09-18.29,3.34s-12.43-6.91-24.24-3.17c-12.62,4-18.62,8.13-32,14.75-9.64,4.77-8.25,19.13-8.25,19.13H461S463.66,578,456.41,573.84Z" transform="translate(0 -28.46)" style="fill: #9ee2e0"/>
  <rect x="373.56" y="570.93" width="87.88" height="7.87" style="fill: #fff"/>
  <path d="M456.41,573.84c-7.25-4.12-4.79,3.09-18.29,3.34s-12.43-6.91-24.24-3.17c-12.62,4-18.62,8.13-32,14.75-9.64,4.77-8.25,19.13-8.25,19.13H461S463.66,578,456.41,573.84Z" transform="translate(0 -28.46)" style="fill: none;stroke: #000;stroke-miterlimit: 10;stroke-width: 3px"/>
  <line x1="461.45" y1="570.38" x2="375.38" y2="570.38" style="fill: none;stroke: #000;stroke-miterlimit: 10;stroke-width: 3px"/>
  <path d="M416.38,598.83s2.5-9.46-9-9.83-26.82.52-26.82,0.52" transform="translate(0 -28.46)" style="fill: none;stroke: #000;stroke-miterlimit: 10;stroke-width: 3px"/>
  <path d="M437.75,598.83s0.08-17.05,22.67-16.82" transform="translate(0 -28.46)" style="fill: none;stroke: #000;stroke-miterlimit: 10;stroke-width: 3px"/>
  <rect x="529" y="521.54" width="30.18" height="42.67" style="fill: #4c5c74"/>
  <rect x="529" y="521.54" width="30.18" height="9.33" style="fill: #38475d"/>
  <rect x="529" y="521.54" width="30.18" height="42.67" style="fill: none;stroke: #000;stroke-miterlimit: 10;stroke-width: 3px"/>
  <path d="M562.41,573.84c-7.25-4.12-4.79,3.09-18.29,3.34s-12.43-6.91-24.24-3.17c-12.62,4-18.62,8.13-32,14.75-9.64,4.77-8.25,19.13-8.25,19.13H567S569.66,578,562.41,573.84Z" transform="translate(0 -28.46)" style="fill: #9ee2e0"/>
  <rect x="479.56" y="570.93" width="87.88" height="7.87" style="fill: #fff"/>
  <path d="M562.41,573.84c-7.25-4.12-4.79,3.09-18.29,3.34s-12.43-6.91-24.24-3.17c-12.62,4-18.62,8.13-32,14.75-9.64,4.77-8.25,19.13-8.25,19.13H567S569.66,578,562.41,573.84Z" transform="translate(0 -28.46)" style="fill: none;stroke: #000;stroke-miterlimit: 10;stroke-width: 3px"/>
  <line x1="567.45" y1="570.38" x2="481.38" y2="570.38" style="fill: none;stroke: #000;stroke-miterlimit: 10;stroke-width: 3px"/>
  <path d="M522.38,598.83s2.5-9.46-9-9.83-26.82.52-26.82,0.52" transform="translate(0 -28.46)" style="fill: none;stroke: #000;stroke-miterlimit: 10;stroke-width: 3px"/>
  <path d="M543.75,598.83s0.08-17.05,22.67-16.82" transform="translate(0 -28.46)" style="fill: none;stroke: #000;stroke-miterlimit: 10;stroke-width: 3px"/>
  <line x1="597.72" y1="132.68" x2="590.67" y2="108.71" style="fill: none;stroke: #000;stroke-linecap: round;stroke-miterlimit: 10;stroke-width: 3px"/>
  <line x1="641" y1="125.23" x2="634.67" y2="102.04" style="fill: none;stroke: #000;stroke-linecap: round;stroke-miterlimit: 10;stroke-width: 3px"/>
  <path d="M579.83,113.33s10.67-15.46-1.17-20.67" transform="translate(0 -28.46)" style="fill: none;stroke: #000;stroke-linecap: round;stroke-miterlimit: 10;stroke-width: 3px"/>
  <path d="M607.56,608.25l-7.63-.45c-2.19-.13-2.86-3-2.76-5.19l8.09-165.86,19.17,1.14L611.79,604.53A4,4,0,0,1,607.56,608.25Z" transform="translate(0 -28.46)" style="fill: #9ed9db"/>
  <path d="M500.56,608.25l-7.63-.45a4,4,0,0,1-3.76-4.19l30.09-166.86,19.17,1.14L504.79,604.53A4,4,0,0,1,500.56,608.25Z" transform="translate(0 -28.46)" style="fill: #9ed9db"/>
  <path d="M509.69,579.39S503.63,509.5,531,476" transform="translate(0 -28.46)" style="fill: none;stroke: #5db9b5;stroke-miterlimit: 10;stroke-width: 3px"/>
  <path d="M512.42,474.46S531.5,456.25,534.25,439" transform="translate(0 -28.46)" style="fill: none;stroke: #5db9b5;stroke-miterlimit: 10;stroke-width: 3px"/>
  <path d="M496.24,563.67s9.76,25-6.74,35.17" transform="translate(0 -28.46)" style="fill: none;stroke: #5db9b5;stroke-miterlimit: 10;stroke-width: 3px"/>
  <path d="M500.56,608.25l-7.63-.45a4,4,0,0,1-3.76-4.19l29.09-165.86,20.17,0.14L504.79,604.53A4,4,0,0,1,500.56,608.25Z" transform="translate(0 -28.46)" style="fill: none;stroke: #000;stroke-miterlimit: 10;stroke-width: 3px"/>
  <path d="M617.2,540.8s-15.29-59,6.38-90.79" transform="translate(0 -28.46)" style="fill: none;stroke: #5db9b5;stroke-miterlimit: 10;stroke-width: 3px"/>
  <path d="M596.75,598.83s20.25-25.58,4.54-80.61" transform="translate(0 -28.46)" style="fill: none;stroke: #5db9b5;stroke-miterlimit: 10;stroke-width: 3px"/>
  <path d="M607.56,608.25l-7.63-.45a4,4,0,0,1-3.76-4.19l9.09-166.86,19.17,1.14L611.79,604.53A4,4,0,0,1,607.56,608.25Z" transform="translate(0 -28.46)" style="fill: none;stroke: #000;stroke-miterlimit: 10;stroke-width: 3px"/>
  <path d="M712.85,607.81l7.6-.79a4,4,0,0,0,3.57-4.35L694.57,434.34l-19.1,2,33,168A4,4,0,0,0,712.85,607.81Z" transform="translate(0 -28.46)" style="fill: #9ed9db"/>
  <path d="M683.8,478.5s14.39,6.24,4.64,23.49" transform="translate(0 -28.46)" style="fill: none;stroke: #5db9b5;stroke-miterlimit: 10;stroke-width: 3px"/>
  <path d="M677.58,447s22.22,17,23.67,71.23c1.32,49.52,17.94,71.7,21.19,74.45" transform="translate(0 -28.46)" style="fill: none;stroke: #5db9b5;stroke-miterlimit: 10;stroke-width: 3px"/>
  <path d="M494.67,439H676.33c5.67,0,48-.51,58.67-47.75s4-55.25,11-83.58,15.52-50.88,16.33-55.67c0.9-5.28-6.33-14-14.83-17.83s-62.83-8.33-87.5,4.5c-27,13-46.17,56.67-56.67,102S574.33,419.33,545,420s-50.33,0-50.33,0l-0.17.17a13.43,13.43,0,0,0,.17,18.83h0Z" transform="translate(0 -28.46)" style="fill: #fff"/>
  <path d="M712.85,607.81l7.6-.79a4,4,0,0,0,3.57-4.35L694.57,434.34l-19.1,2,33,168A4,4,0,0,0,712.85,607.81Z" transform="translate(0 -28.46)" style="fill: none;stroke: #000;stroke-miterlimit: 10;stroke-width: 3px"/>
  <path d="M735,391.25c10.67-47.25,4-55.25,11-83.58s15.25-56.29,15.25-56.29l-1.37-5.3s-46-2.41-67.71-1.7c-27.54.9-44.67,22.12-53.17,41.06-8.1,18-25.67,77.56-29.33,91.81s-9,26.42-25.17,40.92C568,433,511.67,430.33,504.33,430.55s-9.67,8.45-9.67,8.45H676.33C682,439,724.33,438.49,735,391.25Z" transform="translate(0 -28.46)" style="fill: #d4ddef"/>
  <path d="M494.67,439H676.33c5.67,0,48-.51,58.67-47.75s4-55.25,11-83.58,15.52-50.88,16.33-55.67c0.9-5.28-6.33-14-14.83-17.83s-62.83-8.33-87.5,4.5c-27,13-46.17,56.67-56.67,102S574.33,419.33,545,420s-50.33,0-50.33,0l-0.17.17a13.43,13.43,0,0,0,.17,18.83h0Z" transform="translate(0 -28.46)" style="fill: none;stroke: #000;stroke-miterlimit: 10;stroke-width: 3px"/>
  <path d="M759.88,246.08s-57.88-1.4-64.21-1.41-26-1.33-47.33,25" transform="translate(0 -28.46)" style="fill: none;stroke: #000;stroke-linecap: round;stroke-miterlimit: 10;stroke-width: 3px"/>
  <path d="M504,430.55h47s30.33-1.21,43.67-23.88" transform="translate(0 -28.46)" style="fill: none;stroke: #000;stroke-linecap: round;stroke-miterlimit: 10;stroke-width: 3px"/>
  <line x1="619.24" y1="483.28" x2="681.18" y2="436.76" style="fill: none;stroke: #000;stroke-miterlimit: 10;stroke-width: 3px"/>
  <line x1="622.51" y1="436.76" x2="690.97" y2="486.3" style="fill: none;stroke: #000;stroke-miterlimit: 10;stroke-width: 3px"/>
  <line x1="522.12" y1="489.77" x2="603.67" y2="440.8" style="fill: none;stroke: #000;stroke-miterlimit: 10;stroke-width: 3px"/>
  <line x1="534.25" y1="430.03" x2="601.65" y2="482.34" style="fill: none;stroke: #000;stroke-miterlimit: 10;stroke-width: 3px"/>
</svg>
