<?xml version="1.0" encoding="utf-8"?>
<svg version="1.1" id="Layer_1" xmlns="http://www.w3.org/2000/svg" xmlns:xlink="http://www.w3.org/1999/xlink" x="0px" y="0px"
	 viewBox="0 0 16 16" style="enable-background:new 0 0 16 16;" xml:space="preserve">
<title>favicon</title>
<path d="M15.6,6.9L12.7,2c-0.4-0.6-1.2-1.1-1.9-1.1H5.2C4.5,0.9,3.6,1.4,3.3,2L0.4,6.9c-0.3,0.6-0.3,1.6,0,2.2L3.3,14
	c0.4,0.6,1.2,1.1,1.9,1.1h5.6c0.7,0,1.6-0.5,1.9-1.1l2.8-4.9C15.9,8.5,15.9,7.5,15.6,6.9z M7.4,12.6c-1,0-2-0.3-2.5-0.5l0.4-1.6
	c0.7,0.3,1.4,0.5,2.2,0.5c0.9,0,1.4-0.4,1.4-0.9c0-0.5-0.4-0.9-1.5-1.2C6,8.3,5.1,7.5,5.1,6.2c0-1.5,1.2-2.6,3.3-2.6
	c1,0,1.7,0.2,2.2,0.4l-0.4,1.6C9.6,5.3,9,5.2,8.3,5.2C7.5,5.2,7.1,5.6,7.1,6c0,0.6,0.5,0.8,1.6,1.2C10.2,7.8,11,8.6,11,9.9
	C11,11.3,9.8,12.6,7.4,12.6z"/>
</svg>
