<?xml version="1.0" standalone="no"?>
<!DOCTYPE svg PUBLIC "-//W3C//DTD SVG 20010904//EN"
 "http://www.w3.org/TR/2001/REC-SVG-20010904/DTD/svg10.dtd">
<svg version="1.0" xmlns="http://www.w3.org/2000/svg"
 width="16.000000pt" height="16.000000pt" viewBox="0 0 16.000000 16.000000"
 preserveAspectRatio="xMidYMid meet">
<metadata>
Created by potrace 1.11, written by Peter Selinger 2001-2013
</metadata>
<g transform="translate(0.000000,16.000000) scale(0.001824,-0.001824)"
fill="#000000" stroke="none">
<path d="M4257 7414 c-1 -1 -47 -4 -102 -8 -94 -6 -127 -10 -200 -21 -16 -3
-48 -7 -70 -10 -76 -12 -300 -65 -400 -96 -290 -90 -585 -235 -830 -408 -253
-177 -530 -443 -680 -651 -22 -30 -42 -57 -45 -60 -11 -9 -135 -202 -177 -275
-183 -316 -328 -741 -368 -1070 -3 -28 -7 -59 -10 -70 -23 -120 -24 -597 -1
-720 2 -11 7 -42 10 -70 4 -27 10 -66 12 -85 8 -52 54 -259 69 -305 7 -22 18
-62 26 -90 36 -141 183 -469 282 -634 31 -52 57 -97 57 -101 0 -4 9 -15 20
-25 11 -10 20 -24 20 -31 0 -7 3 -14 8 -16 4 -1 30 -34 57 -73 149 -212 363
-431 625 -639 47 -37 159 -112 253 -170 608 -375 1368 -521 2082 -400 499 84
956 286 1365 603 120 92 139 110 282 253 318 318 549 681 704 1108 20 52 37
102 39 110 3 8 14 49 25 90 12 41 23 82 25 90 1 8 8 33 14 55 5 22 13 54 15
70 3 17 8 41 11 55 4 22 7 42 21 140 3 19 7 46 9 60 24 156 24 561 0 713 -2
12 -6 49 -10 82 -4 32 -8 62 -10 65 -1 3 -6 28 -10 55 -9 72 -70 303 -111 425
-143 423 -392 826 -704 1140 -146 147 -175 173 -304 274 -199 156 -448 304
-656 391 -36 15 -78 33 -95 41 -113 52 -460 146 -622 169 -12 2 -34 6 -50 9
-30 6 -86 12 -198 22 -61 6 -373 12 -378 8z"/>
</g>
</svg>
